<svg xmlns="http://www.w3.org/2000/svg" version="1.1" xmlns:xlink="http://www.w3.org/1999/xlink" xmlns:svgjs="http://svgjs.dev/svgjs" width="1500" height="337" viewBox="0 0 1500 337"><g transform="matrix(1,0,0,1,-0.9090909090909918,-0.9036249942921586)"><svg viewBox="0 0 396 89" data-background-color="#1d366f" preserveAspectRatio="xMidYMid meet" height="337" width="1500" xmlns="http://www.w3.org/2000/svg" xmlns:xlink="http://www.w3.org/1999/xlink"><g id="tight-bounds" transform="matrix(1,0,0,1,0.2400000000000091,0.23864280264689341)"><svg viewBox="0 0 395.52 88.52271439470621" height="88.52271439470621" width="395.52"><g><svg viewBox="0 0 518.9233100649576 116.1420407808349" height="88.52271439470621" width="395.52"><g><rect width="5.1811898605211" height="100.8469239775701" x="409.0833242422018" y="7.647558401632402" fill="#ffffff" opacity="1" stroke-width="0" stroke="transparent" fill-opacity="1" class="rect-yte-0" data-fill-palette-color="primary" rx="1%" id="yte-0" data-palette-color="#ffffff"></rect></g><g transform="matrix(1,0,0,1,0,16.051468733096577)"><svg viewBox="0 0 395.52 84.03910331464175" height="84.03910331464175" width="395.52"><g id="textblocktransform"><svg viewBox="0 0 395.52 84.03910331464175" height="84.03910331464175" width="395.52" id="textblock"><g><svg viewBox="0 0 395.52 57.453211009174304" height="57.453211009174304" width="395.52"><g transform="matrix(1,0,0,1,0,0)"><svg width="395.52" viewBox="2.05 -37.5 261.58 38" height="57.453211009174304" data-palette-color="#ffffff"><path d="M19.5-0.5L19.5-0.5Q21.95-0.5 22.63-1.4 23.3-2.3 23.3-4.45L23.3-4.45 23.3-14.15 20.1-14.15 20.1-15.25 34.5-15.25 34.5-14.15 32.55-14.15 32.55-0.05 31.8-0.05Q30.9-1.3 29.25-1.3L29.25-1.3Q28.55-1.3 25.08-0.4 21.6 0.5 19.15 0.5L19.15 0.5Q11 0.5 6.53-3.9 2.05-8.3 2.05-17.13 2.05-25.95 6.73-30.75 11.4-35.55 19.3-35.55L19.3-35.55Q22.35-35.55 25.43-34.77 28.5-34 29-34 29.5-34 29.75-34.23 30-34.45 30.3-35L30.3-35 30.85-35 31.25-24.15 30.35-24.15Q27.9-29 25.43-31.78 22.95-34.55 19.9-34.55L19.9-34.55Q12.25-34.55 12.25-19.6L12.25-19.6 12.25-15.65Q12.25-8.15 14.13-4.33 16-0.5 19.5-0.5ZM49.8 0.5Q43.35 0.5 40.12-2.83 36.9-6.15 36.9-12.08 36.9-18 40.52-21.15 44.15-24.3 49.75-24.3L49.75-24.3Q61.1-24.3 60.65-12.9L60.65-12.9 46.55-12.9 46.55-10.95Q46.55-6.05 47.8-3.55 49.05-1.05 52.15-1.05L52.15-1.05Q57.95-1.05 59.75-7.25L59.75-7.25 60.65-7.1Q59.7-3.5 57.22-1.5 54.75 0.5 49.8 0.5L49.8 0.5ZM46.6-16.35L46.6-13.9 51.75-13.9 51.75-16.35Q51.75-20.4 51.27-21.88 50.8-23.35 49.37-23.35 47.95-23.35 47.27-21.78 46.6-20.2 46.6-16.35L46.6-16.35ZM62.55-22.9L62.55-23.8 74.6-23.8 74.6-19.2Q75.4-21.5 77.05-22.9 78.7-24.3 82.05-24.3L82.05-24.3Q89.8-24.3 89.8-15.95L89.8-15.95 89.8-0.9 92.6-0.9 92.6 0 78.45 0 78.45-0.9 80.5-0.9 80.5-17.15Q80.5-20.15 80.1-21.03 79.7-21.9 78.65-21.9L78.65-21.9Q77.05-21.9 75.82-19.8 74.6-17.7 74.6-14.7L74.6-14.7 74.6-0.9 76.75-0.9 76.75 0 62.55 0 62.55-0.9 65.3-0.9 65.3-22.9 62.55-22.9ZM95.49-7.15L95.49-7.15 95.49-22.9 92.74-22.9 92.74-23.8 95.49-23.8 95.49-30.25 104.79-32.55 104.79-23.8 111.29-23.8 111.29-22.9 104.79-22.9 104.79-6.05Q104.79-3.7 105.27-2.6 105.74-1.5 107.24-1.5 108.74-1.5 109.87-3 110.99-4.5 111.34-7.1L111.34-7.1 112.19-7Q111.79-3.55 109.99-1.53 108.19 0.5 104.04 0.5 99.89 0.5 97.69-1.15 95.49-2.8 95.49-7.15ZM125.84 0.5Q119.39 0.5 116.17-2.83 112.94-6.15 112.94-12.08 112.94-18 116.57-21.15 120.19-24.3 125.79-24.3L125.79-24.3Q137.14-24.3 136.69-12.9L136.69-12.9 122.59-12.9 122.59-10.95Q122.59-6.05 123.84-3.55 125.09-1.05 128.19-1.05L128.19-1.05Q133.99-1.05 135.79-7.25L135.79-7.25 136.69-7.1Q135.74-3.5 133.27-1.5 130.79 0.5 125.84 0.5L125.84 0.5ZM122.64-16.35L122.64-13.9 127.79-13.9 127.79-16.35Q127.79-20.4 127.32-21.88 126.84-23.35 125.42-23.35 123.99-23.35 123.32-21.78 122.64-20.2 122.64-16.35L122.64-16.35ZM168.74 0L154.84 0 154.84-0.9 157.14-0.9 151.49-12.5 150.54-12.25 150.54-0.9 152.84-0.9 152.84 0 138.49 0 138.49-0.9 141.24-0.9 141.24-36.6 138.29-36.6 138.29-37.5 150.54-37.5 150.54-13.25 151.34-13.55 162.59-22.9 157.89-22.9 157.89-23.8 167.74-23.8 167.74-22.9 164.24-22.9 158.29-17.85 166.94-0.9 168.74-0.9 168.74 0ZM179.03-33.9L179.03-35 197.03-35 197.03-33.9 191.73-33.9 191.73-1.1 193.53-1.1Q197.78-1.1 200.31-3.7 202.83-6.3 205.43-11.7L205.43-11.7 206.48-11.7 205.53 0 179.03 0 179.03-1.1 181.98-1.1 181.98-33.9 179.03-33.9ZM220.28-11.75L220.28-11.75 221.73-11.75 221.73-15.6Q221.73-20.35 221.21-21.98 220.68-23.6 219.18-23.6L219.18-23.6Q218.28-23.6 217.56-23.13 216.83-22.65 216.83-21.83 216.83-21 217.13-20.15L217.13-20.15 218.38-20.15Q218.78-19.1 218.78-17.63 218.78-16.15 217.53-15.08 216.28-14 214.38-14L214.38-14Q210.08-14 210.08-18.15L210.08-18.15Q210.08-24.3 220.53-24.3L220.53-24.3Q226.48-24.3 228.76-22.28 231.03-20.25 231.03-14.85L231.03-14.85 231.03-4.7Q231.03-2.1 232.48-2.1L232.48-2.1Q234.18-2.1 234.48-7.25L234.48-7.25 235.23-7.2Q235.03-2.8 233.58-1.15 232.13 0.5 228.83 0.5L228.83 0.5Q222.83 0.5 221.93-3.2L221.93-3.2Q221.28-1.3 219.98-0.4 218.68 0.5 216.18 0.5L216.18 0.5Q208.78 0.5 208.78-5.55L208.78-5.55Q208.78-9.1 211.61-10.43 214.43-11.75 220.28-11.75ZM218.28-5.6Q218.28-3 218.56-2.25 218.83-1.5 219.61-1.5 220.38-1.5 221.06-2.78 221.73-4.05 221.73-6.3L221.73-6.3 221.73-10.95 221.38-10.95Q218.28-10.95 218.28-6.4L218.28-6.4 218.28-5.6ZM253.98-13.45Q253.98-18.6 253.48-20.38 252.98-22.15 251.53-22.15 250.08-22.15 248.93-20.35 247.78-18.55 247.78-15.4L247.78-15.4 247.78-6.1Q247.78-3.95 248.65-2.45 249.53-0.95 251.15-0.95 252.78-0.95 253.38-3.15 253.98-5.35 253.98-10.85L253.98-10.85 253.98-13.45ZM235.73-37.5L247.78-37.5 247.78-20Q249.68-24.3 254.28-24.3L254.28-24.3Q263.63-24.3 263.63-11.85L263.63-11.85Q263.63-5.5 261.05-2.5 258.48 0.5 253.33 0.5L253.33 0.5Q250.73 0.5 249.35-0.3 247.98-1.1 247.48-2.95L247.48-2.95 247.13 0 235.73 0 235.73-0.9 238.48-0.9 238.48-36.6 235.73-36.6 235.73-37.5Z" opacity="1" transform="matrix(1,0,0,1,0,0)" fill="#ffffff" class="wordmark-text-0" data-fill-palette-color="primary" id="text-0"></path></svg></g></svg></g><g transform="matrix(1,0,0,1,163.310208,71.01653525137614)"><svg viewBox="0 0 232.209792 13.022568063265622" height="13.022568063265622" width="232.209792"><g transform="matrix(1,0,0,1,0,0)"><svg width="232.209792" viewBox="-0.7 -41.25 967.25 54.25" height="13.022568063265622" data-palette-color="#15ff00"><path d="M10.55-14.65L6.1-2.2 10.15-1.7Q10.35-0.95 10.15 0.15L10.15 0.15Q7 0 4.85 0L4.85 0Q3.65 0-0.55 0.1L-0.55 0.1Q-0.85-0.8-0.55-1.7L-0.55-1.7 2.75-2.3Q3.55-3.5 4.75-6.75L4.75-6.75 17.65-41.25 19.4-41.25 33.9-2.2 37.95-1.7Q38.15-0.95 37.95 0.15L37.95 0.15Q34.8 0 30.9 0L30.9 0Q28 0 23.8 0.1L23.8 0.1Q23.5-0.8 23.8-1.7L23.8-1.7 27.95-2.3 23.55-14.65 10.55-14.65ZM17.2-33.7L17.2-33.7 17.15-33.7Q16.55-31.35 15.2-27.55L15.2-27.55 11.45-17.15 22.65-17.15 19-27.55Q17.95-30.6 17.2-33.7ZM84.09-7.4L84.09-7.4Q84.94-6.85 85.4-5.5L85.4-5.5Q78.45 1 71.3 1L71.3 1Q66.4 1 62.75-0.78 59.09-2.55 56.7-5.48 54.3-8.4 53.12-12.13 51.95-15.85 51.95-19.75L51.95-19.75Q51.95-23.7 53.3-27.48 54.65-31.25 57.25-34.23 59.84-37.2 63.67-39 67.5-40.8 72.4-40.8L72.4-40.8Q78.84-40.8 84.4-37.8L84.4-37.8 84.4-28.2Q83.5-28.05 82.8-28.05L82.8-28.05Q82.05-28.05 81.55-28.2L81.55-28.2 79.95-36.55Q76.9-38.55 71.8-38.55L71.8-38.55Q68.65-38.55 66.12-37.13 63.59-35.7 61.82-33.27 60.05-30.85 59.09-27.58 58.15-24.3 58.15-20.6L58.15-20.6Q58.15-16.65 59.07-13.3 60-9.95 61.7-7.5 63.4-5.05 65.82-3.68 68.25-2.3 71.25-2.3L71.25-2.3Q74.84-2.3 78.2-3.7 81.55-5.1 84.09-7.4ZM97.19-31.7L97.19-31.7 97.19-2.55 101.24-1.8Q101.44-1 101.24 0.2L101.24 0.2Q98.09 0.05 94.79 0.05L94.79 0.05Q92.49 0.05 88.29 0.15L88.29 0.15Q87.99-0.8 88.29-1.8L88.29-1.8 92.24-2.35Q92.44-5.1 92.44-8.7L92.44-8.7 92.44-37.35 88.34-37.85Q88.14-38.6 88.34-39.75L88.34-39.75Q91.79-40 96.94-40.8L96.94-40.8Q97.39-40.3 97.44-39.8L97.44-39.8Q97.19-38.5 97.19-31.7ZM112.69-18.6L112.69-18.6 112.69-2.55 116.74-1.8Q116.79-1.55 116.82-1.35 116.84-1.15 116.84-0.9L116.84-0.9Q116.84-0.65 116.82-0.38 116.79-0.1 116.74 0.2L116.74 0.2Q113.59 0.05 110.29 0.05L110.29 0.05Q109.14 0.05 107.52 0.08 105.89 0.1 103.79 0.15L103.79 0.15Q103.64-0.3 103.64-0.8L103.64-0.8Q103.64-1.25 103.79-1.8L103.79-1.8 107.74-2.35Q107.84-3.75 107.89-5.33 107.94-6.9 107.94-8.7L107.94-8.7 107.94-19.35Q107.94-22.65 107.79-24.25L107.79-24.25 103.84-24.75Q103.74-25 103.74-25.6L103.74-25.6Q103.74-25.85 103.74-26.1 103.74-26.35 103.84-26.65L103.84-26.65Q107.24-26.85 112.44-27.7L112.44-27.7Q112.89-27.2 112.94-26.7L112.94-26.7Q112.69-25.3 112.69-18.6ZM105.39-36.45L105.39-36.45Q105.29-36.7 105.29-36.98 105.29-37.25 105.29-37.5L105.29-37.5Q105.29-38.85 106.42-39.68 107.54-40.5 109.19-40.5L109.19-40.5Q110.74-40.5 111.72-39.58 112.69-38.65 112.69-37.05L112.69-37.05Q112.69-35.75 111.57-34.95 110.44-34.15 108.69-34.15L108.69-34.15Q107.49-34.15 106.57-34.75 105.64-35.35 105.39-36.45ZM140.09-8.7L140.09-17.85Q140.09-21.7 139.06-23.25 138.04-24.8 135.64-24.8L135.64-24.8Q131.94-24.8 128.19-19.25L128.19-19.25 128.19-2.55 132.24-1.8Q132.44-1 132.24 0.2L132.24 0.2Q129.09 0.05 125.79 0.05L125.79 0.05Q123.49 0.05 119.29 0.15L119.29 0.15Q118.99-0.8 119.29-1.8L119.29-1.8 123.24-2.35Q123.44-5.1 123.44-8.7L123.44-8.7 123.44-22.4Q123.44-23.4 123.29-24.25L123.29-24.25 119.34-24.75Q119.14-25.5 119.34-26.65L119.34-26.65Q122.79-26.9 127.94-27.7L127.94-27.7Q128.39-27.2 128.44-26.7L128.44-26.7Q128.19-25.4 128.19-22.25L128.19-22.25Q132.14-27.7 137.09-27.7L137.09-27.7Q144.84-27.7 144.84-20.35L144.84-20.35 144.84-2.55 148.89-1.8Q149.09-1 148.89 0.2L148.89 0.2Q145.74 0.05 142.44 0.05L142.44 0.05Q140.14 0.05 135.94 0.15L135.94 0.15Q135.64-0.8 135.94-1.8L135.94-1.8 139.89-2.35Q140.09-5.1 140.09-8.7L140.09-8.7ZM160.04-18.6L160.04-18.6 160.04-2.55 164.09-1.8Q164.14-1.55 164.16-1.35 164.19-1.15 164.19-0.9L164.19-0.9Q164.19-0.65 164.16-0.38 164.14-0.1 164.09 0.2L164.09 0.2Q160.94 0.05 157.64 0.05L157.64 0.05Q156.49 0.05 154.86 0.08 153.24 0.1 151.14 0.15L151.14 0.15Q150.99-0.3 150.99-0.8L150.99-0.8Q150.99-1.25 151.14-1.8L151.14-1.8 155.09-2.35Q155.19-3.75 155.24-5.33 155.29-6.9 155.29-8.7L155.29-8.7 155.29-19.35Q155.29-22.65 155.14-24.25L155.14-24.25 151.19-24.75Q151.09-25 151.09-25.6L151.09-25.6Q151.09-25.85 151.09-26.1 151.09-26.35 151.19-26.65L151.19-26.65Q154.59-26.85 159.79-27.7L159.79-27.7Q160.24-27.2 160.29-26.7L160.29-26.7Q160.04-25.3 160.04-18.6ZM152.74-36.45L152.74-36.45Q152.64-36.7 152.64-36.98 152.64-37.25 152.64-37.5L152.64-37.5Q152.64-38.85 153.76-39.68 154.89-40.5 156.54-40.5L156.54-40.5Q158.09-40.5 159.06-39.58 160.04-38.65 160.04-37.05L160.04-37.05Q160.04-35.75 158.91-34.95 157.79-34.15 156.04-34.15L156.04-34.15Q154.84-34.15 153.91-34.75 152.99-35.35 152.74-36.45ZM189.03-20.3L189.03-20.3Q187.98-19.2 184.08-19.25L184.08-19.25Q183.28-25.55 179.53-25.55L179.53-25.55Q176.58-25.55 174.53-22.15 172.48-18.75 172.48-13.2L172.48-13.2Q172.48-7.5 174.28-4.42 176.08-1.35 179.68-1.35L179.68-1.35Q183.48-1.35 187.13-4.45L187.13-4.45Q187.88-4 188.28-2.9L188.28-2.9Q184.63 1 179.13 1L179.13 1Q173.88 1 170.53-2.63 167.18-6.25 167.18-13.3L167.18-13.3Q167.18-20.05 170.91-23.88 174.63-27.7 179.43-27.7L179.43-27.7Q183.23-27.7 186.13-25.8 189.03-23.9 189.03-20.3ZM197.48-6.65L197.48-6.65Q197.48-4.05 198.43-2.98 199.38-1.9 201.43-1.9L201.43-1.9Q202.93-1.9 204.76-2.83 206.58-3.75 208.13-5.5L208.13-5.5 208.13-13.3Q202.98-13 200.23-11.48 197.48-9.95 197.48-6.65ZM208.13-15.1L208.13-15.1 208.13-17.65Q208.13-21.9 207.16-23.83 206.18-25.75 203.93-25.75L203.93-25.75Q201.63-25.75 200.23-24.28 198.83-22.8 198.33-19.25L198.33-19.25Q196.73-18.9 195.98-18.9L195.98-18.9Q194.03-18.9 193.68-20.3L193.68-20.3Q193.68-23.7 196.63-25.7 199.58-27.7 203.98-27.7L203.98-27.7Q208.83-27.7 210.86-25.73 212.88-23.75 212.88-18.65L212.88-18.65 212.88-4.55Q212.88-3.3 213.03-2.4L213.03-2.4 216.98-1.9Q217.18-1.15 216.98 0L216.98 0Q213.43 0.15 209.43 0.7L209.43 0.7Q209.03 0.3 208.93-0.3L208.93-0.3 208.68-3.75Q204.53 1 199.43 1L199.43 1Q196.28 1 194.51-0.8 192.73-2.6 192.73-5.65L192.73-5.65Q192.73-10.25 196.91-12.6 201.08-14.95 208.13-15.1ZM227.28-31.7L227.28-31.7 227.28-2.55 231.33-1.8Q231.53-1 231.33 0.2L231.33 0.2Q228.18 0.05 224.88 0.05L224.88 0.05Q222.58 0.05 218.38 0.15L218.38 0.15Q218.08-0.8 218.38-1.8L218.38-1.8 222.33-2.35Q222.53-5.1 222.53-8.7L222.53-8.7 222.53-37.35 218.43-37.85Q218.23-38.6 218.43-39.75L218.43-39.75Q221.88-40 227.03-40.8L227.03-40.8Q227.48-40.3 227.53-39.8L227.53-39.8Q227.28-38.5 227.28-31.7ZM277.32 0L254.12 0 246.97 0.15Q246.67-0.75 246.97-1.65L246.97-1.65 251.12-2.2Q251.32-4.75 251.32-8.1L251.32-8.1 251.32-37.6 247.27-38.1Q247.07-38.85 247.27-39.95L247.27-39.95Q250.02-39.75 254.12-39.75L254.12-39.75Q257.77-39.75 261.02-39.9L261.02-39.9Q261.32-39 261.02-38.1L261.02-38.1 256.87-37.5Q256.67-35.6 256.67-31.65L256.67-31.65 256.67-2.55 273.17-2.55 275.52-11.6Q276.27-11.8 277.37-11.6L277.37-11.6 277.32 0ZM285.37-6.65L285.37-6.65Q285.37-4.05 286.32-2.98 287.27-1.9 289.32-1.9L289.32-1.9Q290.82-1.9 292.64-2.83 294.47-3.75 296.02-5.5L296.02-5.5 296.02-13.3Q290.87-13 288.12-11.48 285.37-9.95 285.37-6.65ZM296.02-15.1L296.02-15.1 296.02-17.65Q296.02-21.9 295.05-23.83 294.07-25.75 291.82-25.75L291.82-25.75Q289.52-25.75 288.12-24.28 286.72-22.8 286.22-19.25L286.22-19.25Q284.62-18.9 283.87-18.9L283.87-18.9Q281.92-18.9 281.57-20.3L281.57-20.3Q281.57-23.7 284.52-25.7 287.47-27.7 291.87-27.7L291.87-27.7Q296.72-27.7 298.75-25.73 300.77-23.75 300.77-18.65L300.77-18.65 300.77-4.55Q300.77-3.3 300.92-2.4L300.92-2.4 304.87-1.9Q305.07-1.15 304.87 0L304.87 0Q301.32 0.15 297.32 0.7L297.32 0.7Q296.92 0.3 296.82-0.3L296.82-0.3 296.57-3.75Q292.42 1 287.32 1L287.32 1Q284.17 1 282.39-0.8 280.62-2.6 280.62-5.65L280.62-5.65Q280.62-10.25 284.8-12.6 288.97-14.95 296.02-15.1ZM313.92-31.7L313.92-23.55Q318.07-27.7 322.97-27.7L322.97-27.7Q327.82-27.7 330.54-24.05 333.27-20.4 333.27-14.2L333.27-14.2Q333.27-7.15 329.47-3.08 325.67 1 320.02 1L320.02 1Q315.12 1 312.32-2.5L312.32-2.5 311.27 0.9Q310.32 1.05 309.67 0.9L309.67 0.9 309.17-4.6 309.17-37.35 305.07-37.85Q304.87-38.6 305.07-39.75L305.07-39.75Q308.52-40 313.67-40.8L313.67-40.8Q314.12-40.3 314.17-39.8L314.17-39.8Q313.92-38.5 313.92-31.7L313.92-31.7ZM321.12-1.75L321.12-1.75Q324.22-1.75 326.24-4.63 328.27-7.5 328.27-12.75L328.27-12.75Q328.27-13.8 328.22-14.35L328.22-14.35Q328.22-19.3 326.24-22 324.27-24.7 321.27-24.7L321.27-24.7Q319.52-24.7 317.47-23.58 315.42-22.45 313.92-20.5L313.92-20.5 313.92-5.2Q315.62-3.25 317.17-2.5 318.72-1.75 321.12-1.75ZM337.61-13.3L337.61-13.3Q337.61-16.3 338.49-18.93 339.36-21.55 341.01-23.5 342.66-25.45 344.99-26.58 347.31-27.7 350.21-27.7L350.21-27.7Q353.06-27.7 355.41-26.58 357.76-25.45 359.44-23.5 361.11-21.55 362.01-18.93 362.91-16.3 362.91-13.3L362.91-13.3Q362.91-10.2 361.99-7.6 361.06-5 359.39-3.08 357.71-1.15 355.36-0.08 353.01 1 350.21 1L350.21 1Q347.26 1 344.94-0.05 342.61-1.1 340.99-3 339.36-4.9 338.49-7.53 337.61-10.15 337.61-13.3ZM344.91-22.5L344.91-22.5Q342.76-19.45 342.76-13.3L342.76-13.3Q342.76-10.25 343.34-7.95 343.91-5.65 344.91-4.13 345.91-2.6 347.26-1.85 348.61-1.1 350.21-1.1L350.21-1.1Q351.76-1.1 353.16-1.85 354.56-2.6 355.56-4.13 356.56-5.65 357.16-7.95 357.76-10.25 357.76-13.3L357.76-13.3Q357.76-16.35 357.16-18.68 356.56-21 355.54-22.53 354.51-24.05 353.14-24.83 351.76-25.6 350.21-25.6L350.21-25.6Q347.11-25.6 344.91-22.5ZM375.71-26.7L375.71-26.7 375.61-21.55Q376.86-23.85 379.09-25.78 381.31-27.7 383.31-27.7L383.31-27.7Q384.86-27.7 386.06-27.35L386.06-27.35Q386.46-26.7 386.46-25.65L386.46-25.65Q386.46-24 385.76-22.35L385.76-22.35Q383.96-22.85 382.31-22.85L382.31-22.85Q378.21-22.85 375.56-18.85L375.56-18.85 375.46-10.1 375.46-2.55 381.01-1.8Q381.21-1 381.01 0.2L381.01 0.2Q377.86 0.05 373.81 0.05L373.81 0.05Q370.76 0.05 366.56 0.15L366.56 0.15Q366.26-0.8 366.56-1.8L366.56-1.8 370.51-2.35Q370.71-5.1 370.71-8.7L370.71-8.7 370.71-22.4Q370.71-23.4 370.56-24.25L370.56-24.25 366.61-24.75Q366.41-25.5 366.61-26.65L366.61-26.65Q370.06-26.9 375.21-27.7L375.21-27.7Q375.66-27.2 375.71-26.7ZM393.56-6.65L393.56-6.65Q393.56-4.05 394.51-2.98 395.46-1.9 397.51-1.9L397.51-1.9Q399.01-1.9 400.83-2.83 402.66-3.75 404.21-5.5L404.21-5.5 404.21-13.3Q399.06-13 396.31-11.48 393.56-9.95 393.56-6.65ZM404.21-15.1L404.21-15.1 404.21-17.65Q404.21-21.9 403.24-23.83 402.26-25.75 400.01-25.75L400.01-25.75Q397.71-25.75 396.31-24.28 394.91-22.8 394.41-19.25L394.41-19.25Q392.81-18.9 392.06-18.9L392.06-18.9Q390.11-18.9 389.76-20.3L389.76-20.3Q389.76-23.7 392.71-25.7 395.66-27.7 400.06-27.7L400.06-27.7Q404.91-27.7 406.94-25.73 408.96-23.75 408.96-18.65L408.96-18.65 408.96-4.55Q408.96-3.3 409.11-2.4L409.11-2.4 413.06-1.9Q413.26-1.15 413.06 0L413.06 0Q409.51 0.15 405.51 0.7L405.51 0.7Q405.11 0.3 405.01-0.3L405.01-0.3 404.76-3.75Q400.61 1 395.51 1L395.51 1Q392.36 1 390.58-0.8 388.81-2.6 388.81-5.65L388.81-5.65Q388.81-10.25 392.99-12.6 397.16-14.95 404.21-15.1ZM423.01-32.7L423.01-32.7 423.01-25.55 430.06-25.55Q430.16-24.95 430.16-24.65L430.16-24.65Q430.16-24.2 430.06-23.6L430.06-23.6 423.01-22.55 423.01-8.8Q423.01-5.1 423.68-3.58 424.36-2.05 425.81-2.05L425.81-2.05Q427.11-2.05 429.86-3.1L429.86-3.1Q430.36-2.65 430.56-1.4L430.56-1.4Q429.06-0.5 428.28-0.08 427.51 0.35 426.33 0.68 425.16 1 423.86 1L423.86 1Q421.36 1 419.78-0.93 418.21-2.85 418.21-6.8L418.21-6.8 418.21-23.15 414.71-23.6Q414.61-24.1 414.61-24.45L414.61-24.45Q414.61-24.85 414.71-25.55L414.71-25.55Q416.11-25.8 417.13-26.43 418.16-27.05 418.86-28.18 419.56-29.3 419.93-30.18 420.31-31.05 420.86-32.7L420.86-32.7Q421.31-32.85 421.96-32.85L421.96-32.85Q422.56-32.85 423.01-32.7ZM433.45-13.3L433.45-13.3Q433.45-16.3 434.33-18.93 435.2-21.55 436.86-23.5 438.5-25.45 440.83-26.58 443.16-27.7 446.06-27.7L446.06-27.7Q448.91-27.7 451.25-26.58 453.61-25.45 455.28-23.5 456.95-21.55 457.86-18.93 458.75-16.3 458.75-13.3L458.75-13.3Q458.75-10.2 457.83-7.6 456.91-5 455.23-3.08 453.56-1.15 451.2-0.08 448.86 1 446.06 1L446.06 1Q443.11 1 440.78-0.05 438.45-1.1 436.83-3 435.2-4.9 434.33-7.53 433.45-10.15 433.45-13.3ZM440.75-22.5L440.75-22.5Q438.61-19.45 438.61-13.3L438.61-13.3Q438.61-10.25 439.18-7.95 439.75-5.65 440.75-4.13 441.75-2.6 443.11-1.85 444.45-1.1 446.06-1.1L446.06-1.1Q447.61-1.1 449-1.85 450.41-2.6 451.41-4.13 452.41-5.65 453-7.95 453.61-10.25 453.61-13.3L453.61-13.3Q453.61-16.35 453-18.68 452.41-21 451.38-22.53 450.36-24.05 448.98-24.83 447.61-25.6 446.06-25.6L446.06-25.6Q442.95-25.6 440.75-22.5ZM471.55-26.7L471.55-26.7 471.45-21.55Q472.7-23.85 474.93-25.78 477.15-27.7 479.15-27.7L479.15-27.7Q480.7-27.7 481.9-27.35L481.9-27.35Q482.3-26.7 482.3-25.65L482.3-25.65Q482.3-24 481.6-22.35L481.6-22.35Q479.8-22.85 478.15-22.85L478.15-22.85Q474.05-22.85 471.4-18.85L471.4-18.85 471.3-10.1 471.3-2.55 476.85-1.8Q477.05-1 476.85 0.2L476.85 0.2Q473.7 0.05 469.65 0.05L469.65 0.05Q466.6 0.05 462.4 0.15L462.4 0.15Q462.1-0.8 462.4-1.8L462.4-1.8 466.35-2.35Q466.55-5.1 466.55-8.7L466.55-8.7 466.55-22.4Q466.55-23.4 466.4-24.25L466.4-24.25 462.45-24.75Q462.25-25.5 462.45-26.65L462.45-26.65Q465.9-26.9 471.05-27.7L471.05-27.7Q471.5-27.2 471.55-26.7ZM493 7.4L493 7.4 496.2-0.15 486.5-24.05 482.6-24.85Q482.35-25.85 482.6-26.85L482.6-26.85Q485.35-26.65 489.3-26.65L489.3-26.65Q492.85-26.65 496.05-26.8L496.05-26.8Q496.35-25.8 496.05-24.85L496.05-24.85 491.75-24.15 496.5-12.9Q497.5-10.45 498.6-6.05L498.6-6.05 498.7-6.05Q499.55-9.05 501.05-12.65L501.05-12.65 505.4-24.3 501.5-24.85Q501.3-25.65 501.5-26.85L501.5-26.85Q504.25-26.65 506.85-26.65L506.85-26.65Q509.05-26.65 512.3-26.8L512.3-26.8Q512.6-25.8 512.3-24.85L512.3-24.85 508.35-24.3 495.15 8Q494.1 10.5 492.8 11.75 491.5 13 489.35 13L489.35 13Q487.65 13 486.73 12.58 485.8 12.15 484.85 10.95L484.85 10.95Q485.15 8.2 487.7 6.55L487.7 6.55Q489.75 8.85 491.2 8.85L491.2 8.85Q492.45 8.85 493 7.4ZM559.14-16.6L559.14-16.6 555.84-16.6Q554.84-11.85 552.69-8.15L552.69-8.15 553.09-7.7Q555.64-4.35 557.12-2.88 558.59-1.4 559.49-1.4L559.49-1.4Q560.34-1.4 560.34-2.25L560.34-2.25Q560.34-3 559.09-5.35L559.09-5.35Q560.69-7.35 562.69-7.35L562.69-7.35Q563.79-7.35 564.27-6.6 564.74-5.85 564.74-4.95L564.74-4.95Q564.74-3.45 562.54-1.35 560.34 0.75 557.29 0.75L557.29 0.75Q555.19 0.75 553.09-0.35 550.99-1.45 549.49-3.45L549.49-3.45 549.29-3.7Q544.64 0.7 537.54 0.7L537.54 0.7Q532.89 0.7 529.79-1.7 526.69-4.1 526.69-8.4L526.69-8.4Q526.69-12.15 528.87-14.8 531.04-17.45 536.19-20.6L536.19-20.6 533.99-23.5Q530.49-28 530.49-31.55L530.49-31.55Q530.49-35.25 533.12-37.77 535.74-40.3 540.44-40.3L540.44-40.3Q545.34-40.3 547.84-38.33 550.34-36.35 550.34-32.75L550.34-32.75Q550.34-30.45 548.74-28.1 547.14-25.75 541.94-22L541.94-22 551.24-10Q552.79-13.05 553.49-16.6L553.49-16.6 550.39-16.6Q550.19-17.35 550.39-18.45L550.39-18.45Q553.14-18.25 554.74-18.25L554.74-18.25Q555.89-18.25 559.14-18.4L559.14-18.4Q559.44-17.5 559.14-16.6ZM539.04-1.6L539.04-1.6Q544.34-1.6 547.99-5.35L547.99-5.35 537.54-18.85Q532.64-15 532.64-9.2L532.64-9.2Q532.64-5.3 534.39-3.45 536.14-1.6 539.04-1.6ZM535.34-33.7L535.34-33.7Q535.34-30.4 538.29-26.7L538.29-26.7 540.69-23.55Q542.69-25.15 544.04-27.5 545.39-29.85 545.39-31.95L545.39-31.95Q545.39-38.65 540.44-38.65L540.44-38.65Q538.19-38.65 536.77-37.3 535.34-35.95 535.34-33.7ZM579.69-39.95L579.69-39.95Q581.74-39.95 586.21-40.15 590.69-40.35 594.34-40.35L594.34-40.35Q601.94-40.35 605.19-37.33 608.44-34.3 608.44-28.9L608.44-28.9Q608.44-25.65 606.19-23.05 603.94-20.45 600.29-19.15L600.29-19.15Q602.44-15.5 604.31-12.3 606.19-9.1 607.04-7.55 607.89-6 608.59-4.78 609.29-3.55 609.61-3.1 609.94-2.65 610.24-2.35L610.24-2.35 613.84-1.85Q614.04-1.1 613.84 0L613.84 0 605.34 0 597.79-13.7Q596.29-16.55 594.94-18.1L594.94-18.1 594.24-18.1Q591.69-18.1 589.09-18.4L589.09-18.4 589.09-2.2 593.64-1.7Q593.84-0.95 593.64 0.15L593.64 0.15Q590.49 0 586.54 0L586.54 0Q583.59 0 579.39 0.1L579.39 0.1Q579.09-0.8 579.39-1.7L579.39-1.7 583.54-2.3Q583.74-4.2 583.74-8.15L583.74-8.15 583.74-37.6 579.69-38.1Q579.49-38.85 579.69-39.95ZM589.09-31.65L589.09-31.65 589.09-20.45Q590.64-20.25 593.59-20.25L593.59-20.25Q596.14-20.25 597.96-21.08 599.79-21.9 600.69-23.28 601.59-24.65 601.99-26.1 602.39-27.55 602.39-29.15L602.39-29.15Q602.39-33.45 600.24-35.85 598.09-38.25 593.09-38.25L593.09-38.25Q591.24-38.25 589.39-37.9L589.39-37.9Q589.09-35.05 589.09-31.65ZM635.69-14.1L635.69-14.1 619.99-14.1Q619.54-1.35 627.64-1.35L627.64-1.35Q631.09-1.35 634.69-4.4L634.69-4.4Q635.44-3.95 635.84-2.85L635.84-2.85Q632.39 1 627.09 1L627.09 1Q614.89 1 614.89-13.35L614.89-13.35Q614.89-20.15 618.49-23.93 622.09-27.7 626.89-27.7L626.89-27.7Q632.14-27.7 634.44-24.05 636.74-20.4 636.74-14.55L636.74-14.55Q636.24-14.15 635.69-14.1ZM626.79-25.7L626.79-25.7Q624.19-25.7 622.36-23 620.54-20.3 620.14-16.1L620.14-16.1 626.34-16.1Q630.04-16.1 631.64-16.55L631.64-16.55Q631.64-20.65 630.39-23.18 629.14-25.7 626.79-25.7ZM649.98-1.2L649.98-1.2Q652.68-1.2 653.98-2.45 655.28-3.7 655.28-5.35L655.28-5.35Q655.28-6.3 654.98-7.1 654.68-7.9 654.01-8.65 653.33-9.4 652.23-10.13 651.13-10.85 649.48-11.7L649.48-11.7Q647.43-12.75 645.96-13.7 644.48-14.65 643.53-15.7 642.58-16.75 642.11-17.95 641.63-19.15 641.63-20.65L641.63-20.65Q641.63-22.45 642.28-23.78 642.93-25.1 644.11-25.98 645.28-26.85 646.88-27.28 648.48-27.7 650.43-27.7L650.43-27.7Q654.33-27.7 658.03-25.8L658.03-25.8 658.03-19.4 655.68-19.4 654.58-24.8Q652.38-25.85 649.93-25.85L649.93-25.85Q645.83-25.85 645.83-22.5L645.83-22.5Q645.83-20.7 647.18-19.2 648.53-17.7 651.53-16.2L651.53-16.2Q653.58-15.15 655.13-14.2 656.68-13.25 657.71-12.2 658.73-11.15 659.26-9.93 659.78-8.7 659.78-7.15L659.78-7.15Q659.78-5.4 659.03-3.9 658.28-2.4 656.93-1.33 655.58-0.25 653.68 0.38 651.78 1 649.48 1L649.48 1Q645.03 1 641.13-0.9L641.13-0.9 641.13-7.3 643.48-7.3 644.58-2.35Q647.13-1.2 649.98-1.2ZM684.93-14.1L684.93-14.1 669.23-14.1Q668.78-1.35 676.88-1.35L676.88-1.35Q680.33-1.35 683.93-4.4L683.93-4.4Q684.68-3.95 685.08-2.85L685.08-2.85Q681.63 1 676.33 1L676.33 1Q664.13 1 664.13-13.35L664.13-13.35Q664.13-20.15 667.73-23.93 671.33-27.7 676.13-27.7L676.13-27.7Q681.38-27.7 683.68-24.05 685.98-20.4 685.98-14.55L685.98-14.55Q685.48-14.15 684.93-14.1ZM676.03-25.7L676.03-25.7Q673.43-25.7 671.61-23 669.78-20.3 669.38-16.1L669.38-16.1 675.58-16.1Q679.28-16.1 680.88-16.55L680.88-16.55Q680.88-20.65 679.63-23.18 678.38-25.7 676.03-25.7ZM694.88-6.65L694.88-6.65Q694.88-4.05 695.83-2.98 696.78-1.9 698.83-1.9L698.83-1.9Q700.33-1.9 702.15-2.83 703.98-3.75 705.53-5.5L705.53-5.5 705.53-13.3Q700.38-13 697.63-11.48 694.88-9.95 694.88-6.65ZM705.53-15.1L705.53-15.1 705.53-17.65Q705.53-21.9 704.55-23.83 703.58-25.75 701.33-25.75L701.33-25.75Q699.03-25.75 697.63-24.28 696.23-22.8 695.73-19.25L695.73-19.25Q694.13-18.9 693.38-18.9L693.38-18.9Q691.43-18.9 691.08-20.3L691.08-20.3Q691.08-23.7 694.03-25.7 696.98-27.7 701.38-27.7L701.38-27.7Q706.23-27.7 708.25-25.73 710.28-23.75 710.28-18.65L710.28-18.65 710.28-4.55Q710.28-3.3 710.43-2.4L710.43-2.4 714.38-1.9Q714.58-1.15 714.38 0L714.38 0Q710.83 0.15 706.83 0.7L706.83 0.7Q706.43 0.3 706.33-0.3L706.33-0.3 706.08-3.75Q701.93 1 696.83 1L696.83 1Q693.68 1 691.9-0.8 690.13-2.6 690.13-5.65L690.13-5.65Q690.13-10.25 694.3-12.6 698.48-14.95 705.53-15.1ZM725.48-26.7L725.48-26.7 725.38-21.55Q726.63-23.85 728.85-25.78 731.08-27.7 733.08-27.7L733.08-27.7Q734.63-27.7 735.83-27.35L735.83-27.35Q736.23-26.7 736.23-25.65L736.23-25.65Q736.23-24 735.53-22.35L735.53-22.35Q733.73-22.85 732.08-22.85L732.08-22.85Q727.98-22.85 725.33-18.85L725.33-18.85 725.23-10.1 725.23-2.55 730.78-1.8Q730.98-1 730.78 0.2L730.78 0.2Q727.63 0.05 723.58 0.05L723.58 0.05Q720.53 0.05 716.33 0.15L716.33 0.15Q716.03-0.8 716.33-1.8L716.33-1.8 720.28-2.35Q720.48-5.1 720.48-8.7L720.48-8.7 720.48-22.4Q720.48-23.4 720.33-24.25L720.33-24.25 716.38-24.75Q716.18-25.5 716.38-26.65L716.38-26.65Q719.83-26.9 724.98-27.7L724.98-27.7Q725.43-27.2 725.48-26.7ZM760.27-20.3L760.27-20.3Q759.22-19.2 755.32-19.25L755.32-19.25Q754.52-25.55 750.77-25.55L750.77-25.55Q747.82-25.55 745.77-22.15 743.72-18.75 743.72-13.2L743.72-13.2Q743.72-7.5 745.52-4.42 747.32-1.35 750.92-1.35L750.92-1.35Q754.72-1.35 758.37-4.45L758.37-4.45Q759.12-4 759.52-2.9L759.52-2.9Q755.87 1 750.37 1L750.37 1Q745.12 1 741.77-2.63 738.42-6.25 738.42-13.3L738.42-13.3Q738.42-20.05 742.15-23.88 745.87-27.7 750.67-27.7L750.67-27.7Q754.47-27.7 757.37-25.8 760.27-23.9 760.27-20.3ZM767.07-8.7L767.07-32.45Q767.07-35.75 766.92-37.35L766.92-37.35 762.97-37.85Q762.77-38.6 762.97-39.75L762.97-39.75Q766.32-40 771.52-40.8L771.52-40.8Q771.97-40.3 772.02-39.8L772.02-39.8Q771.77-38.5 771.77-31.7L771.77-31.7 771.77-22.25Q775.47-27.35 780.67-27.35L780.67-27.35Q783.77-27.35 785.97-25.8 788.17-24.25 788.17-20.5L788.17-20.5 788.17-2.55 792.22-1.8Q792.42-1 792.22 0.2L792.22 0.2Q789.07 0.05 785.82 0.05L785.82 0.05Q783.52 0.05 779.32 0.15L779.32 0.15Q779.02-0.8 779.32-1.8L779.32-1.8 783.27-2.35Q783.47-5.1 783.47-8.7L783.47-8.7 783.47-18Q783.47-21.5 782.6-23.05 781.72-24.6 779.42-24.6L779.42-24.6Q777.52-24.6 775.45-23.2 773.37-21.8 771.77-19.15L771.77-19.15 771.77-2.55 775.82-1.8Q776.02-1 775.82 0.2L775.82 0.2Q772.67 0.05 769.42 0.05L769.42 0.05Q767.12 0.05 762.92 0.15L762.92 0.15Q762.62-0.8 762.92-1.8L762.92-1.8 766.87-2.35Q767.07-5.1 767.07-8.7L767.07-8.7ZM840.12-7.4L840.12-7.4Q840.97-6.85 841.42-5.5L841.42-5.5Q834.47 1 827.32 1L827.32 1Q822.42 1 818.77-0.78 815.12-2.55 812.72-5.48 810.32-8.4 809.14-12.13 807.97-15.85 807.97-19.75L807.97-19.75Q807.97-23.7 809.32-27.48 810.67-31.25 813.27-34.23 815.87-37.2 819.69-39 823.52-40.8 828.42-40.8L828.42-40.8Q834.87-40.8 840.42-37.8L840.42-37.8 840.42-28.2Q839.52-28.05 838.82-28.05L838.82-28.05Q838.07-28.05 837.57-28.2L837.57-28.2 835.97-36.55Q832.92-38.55 827.82-38.55L827.82-38.55Q824.67-38.55 822.14-37.13 819.62-35.7 817.84-33.27 816.07-30.85 815.12-27.58 814.17-24.3 814.17-20.6L814.17-20.6Q814.17-16.65 815.09-13.3 816.02-9.95 817.72-7.5 819.42-5.05 821.84-3.68 824.27-2.3 827.27-2.3L827.27-2.3Q830.87-2.3 834.22-3.7 837.57-5.1 840.12-7.4ZM866.06-14.1L866.06-14.1 850.36-14.1Q849.91-1.35 858.01-1.35L858.01-1.35Q861.46-1.35 865.06-4.4L865.06-4.4Q865.81-3.95 866.21-2.85L866.21-2.85Q862.76 1 857.46 1L857.46 1Q845.26 1 845.26-13.35L845.26-13.35Q845.26-20.15 848.86-23.93 852.46-27.7 857.26-27.7L857.26-27.7Q862.51-27.7 864.81-24.05 867.11-20.4 867.11-14.55L867.11-14.55Q866.61-14.15 866.06-14.1ZM857.16-25.7L857.16-25.7Q854.56-25.7 852.74-23 850.91-20.3 850.51-16.1L850.51-16.1 856.71-16.1Q860.41-16.1 862.01-16.55L862.01-16.55Q862.01-20.65 860.76-23.18 859.51-25.7 857.16-25.7ZM891.56-8.7L891.56-17.85Q891.56-21.7 890.54-23.25 889.51-24.8 887.11-24.8L887.11-24.8Q883.41-24.8 879.66-19.25L879.66-19.25 879.66-2.55 883.71-1.8Q883.91-1 883.71 0.2L883.71 0.2Q880.56 0.05 877.26 0.05L877.26 0.05Q874.96 0.05 870.76 0.15L870.76 0.15Q870.46-0.8 870.76-1.8L870.76-1.8 874.71-2.35Q874.91-5.1 874.91-8.7L874.91-8.7 874.91-22.4Q874.91-23.4 874.76-24.25L874.76-24.25 870.81-24.75Q870.61-25.5 870.81-26.65L870.81-26.65Q874.26-26.9 879.41-27.7L879.41-27.7Q879.86-27.2 879.91-26.7L879.91-26.7Q879.66-25.4 879.66-22.25L879.66-22.25Q883.61-27.7 888.56-27.7L888.56-27.7Q896.31-27.7 896.31-20.35L896.31-20.35 896.31-2.55 900.36-1.8Q900.56-1 900.36 0.2L900.36 0.2Q897.21 0.05 893.91 0.05L893.91 0.05Q891.61 0.05 887.41 0.15L887.41 0.15Q887.11-0.8 887.41-1.8L887.41-1.8 891.36-2.35Q891.56-5.1 891.56-8.7L891.56-8.7ZM910.61-32.7L910.61-32.7 910.61-25.55 917.66-25.55Q917.76-24.95 917.76-24.65L917.76-24.65Q917.76-24.2 917.66-23.6L917.66-23.6 910.61-22.55 910.61-8.8Q910.61-5.1 911.28-3.58 911.96-2.05 913.41-2.05L913.41-2.05Q914.71-2.05 917.46-3.1L917.46-3.1Q917.96-2.65 918.16-1.4L918.16-1.4Q916.66-0.5 915.88-0.08 915.11 0.35 913.93 0.68 912.76 1 911.46 1L911.46 1Q908.96 1 907.38-0.93 905.81-2.85 905.81-6.8L905.81-6.8 905.81-23.15 902.31-23.6Q902.21-24.1 902.21-24.45L902.21-24.45Q902.21-24.85 902.31-25.55L902.31-25.55Q903.71-25.8 904.73-26.43 905.76-27.05 906.46-28.18 907.16-29.3 907.53-30.18 907.91-31.05 908.46-32.7L908.46-32.7Q908.91-32.85 909.56-32.85L909.56-32.85Q910.16-32.85 910.61-32.7ZM941.96-14.1L941.96-14.1 926.26-14.1Q925.81-1.35 933.91-1.35L933.91-1.35Q937.36-1.35 940.96-4.4L940.96-4.4Q941.71-3.95 942.11-2.85L942.11-2.85Q938.66 1 933.36 1L933.36 1Q921.16 1 921.16-13.35L921.16-13.35Q921.16-20.15 924.76-23.93 928.36-27.7 933.16-27.7L933.16-27.7Q938.41-27.7 940.71-24.05 943.01-20.4 943.01-14.55L943.01-14.55Q942.51-14.15 941.96-14.1ZM933.06-25.7L933.06-25.7Q930.46-25.7 928.63-23 926.81-20.3 926.41-16.1L926.41-16.1 932.61-16.1Q936.31-16.1 937.91-16.55L937.91-16.55Q937.91-20.65 936.66-23.18 935.41-25.7 933.06-25.7ZM955.8-26.7L955.8-26.7 955.7-21.55Q956.95-23.85 959.18-25.78 961.4-27.7 963.4-27.7L963.4-27.7Q964.95-27.7 966.15-27.35L966.15-27.35Q966.55-26.7 966.55-25.65L966.55-25.65Q966.55-24 965.85-22.35L965.85-22.35Q964.05-22.85 962.4-22.85L962.4-22.85Q958.3-22.85 955.65-18.85L955.65-18.85 955.55-10.1 955.55-2.55 961.1-1.8Q961.3-1 961.1 0.2L961.1 0.2Q957.95 0.05 953.9 0.05L953.9 0.05Q950.85 0.05 946.65 0.15L946.65 0.15Q946.35-0.8 946.65-1.8L946.65-1.8 950.6-2.35Q950.8-5.1 950.8-8.7L950.8-8.7 950.8-22.4Q950.8-23.4 950.65-24.25L950.65-24.25 946.7-24.75Q946.5-25.5 946.7-26.65L946.7-26.65Q950.15-26.9 955.3-27.7L955.3-27.7Q955.75-27.2 955.8-26.7Z" opacity="1" transform="matrix(1,0,0,1,0,0)" fill="#15ff00" class="slogan-text-1" data-fill-palette-color="secondary" id="text-1"></path></svg></g></svg></g></svg></g></svg></g><g transform="matrix(1,0,0,1,427.8278383449247,0)"><svg viewBox="0 0 91.09547172003289 116.1420407808349" height="116.1420407808349" width="91.09547172003289"><g><svg xmlns="http://www.w3.org/2000/svg" xmlns:xlink="http://www.w3.org/1999/xlink" version="1.1" x="0" y="0" viewBox="27.1 20.779860950453863 45.9 58.52013904954613" enable-background="new 0 0 100 100" xml:space="preserve" height="116.1420407808349" width="91.09547172003289" class="icon-icon-0" data-fill-palette-color="accent" id="icon-0"><g fill="#15ff00" data-fill-palette-color="accent"><path d="M70.9 79.3H29.1C28 79.3 27.1 78.4 27.1 77.3 27.1 77.3 27.3 73.3 29.1 73.3H49.4C53.8 73.3 57.9 71.1 60.4 67.4 63 63.5 63.4 58.6 61.6 54.3 60.9 52.7 59.4 51.7 57.7 51.7 56.2 51.7 54.9 52.4 54.1 53.8L50.9 59C51.6 59.6 51.8 60.7 51.3 61.6L50.7 62.6C50.1 63.5 48.9 63.8 47.9 63.3L38.8 57.8C38.3 57.5 38 57.1 37.9 56.6S37.9 55.5 38.1 55.1L38.2 54.9C38.5 54.3 39.2 53.1 40.4 53.1 40.7 53.1 40.9 53.2 41.1 53.3L57.6 26C58 25.4 58.6 25 59.3 24.9L59.2 22.6C59.2 22.1 59.4 21.7 59.7 21.3 60.2 20.7 61.2 20.6 61.8 21.1L69.8 25.9C70.4 26.3 70.7 26.9 70.6 27.5S70.1 28.7 69.5 28.9L67.4 29.7C67.7 30.3 67.6 31.1 67.2 31.7L64 37.3C62.7 39.4 62.6 42 63.6 44.2L67.2 52.1C69.4 57.3 69 64.6 66.2 68.8 65.6 69.7 65.6 70.8 66.1 71.8 66.6 72.7 67.6 73.3 68.7 73.3H71C72.8 73.3 73 77.3 73 77.3 72.9 78.4 72 79.3 70.9 79.3M29.6 75.3C29.4 75.8 29.2 77 29.2 77.3H71C71 77 70.8 75.8 70.6 75.3H68.8C67 75.3 65.4 74.3 64.5 72.7S63.7 69.2 64.7 67.7C67.1 64 67.5 57.4 65.6 52.9L61.8 45C60.5 42.2 60.7 38.9 62.3 36.2L65.7 30.6C65.8 30.5 65.7 30.3 65.6 30.3L63.6 29.1 68.3 27.2 61.3 23 61.6 27.9 59.8 26.8H59.7S59.6 26.8 59.5 26.9L42.6 54.9 42.2 56 40.6 55C40.4 55.2 40.2 55.6 40.1 55.7L39.9 56 49 61.5 49.6 60.5 47.9 59.5 48.8 58.5 52.3 52.8C53.4 50.9 55.4 49.8 57.6 49.8 60.1 49.8 62.3 51.2 63.4 53.6 65.5 58.5 65 64.1 62.1 68.6 59.3 72.8 54.5 75.4 49.4 75.4H29.6z" fill="#15ff00" data-fill-palette-color="accent"></path></g></svg></g></svg></g></svg></g><defs></defs></svg><rect width="395.52" height="88.52271439470621" fill="none" stroke="none" visibility="hidden"></rect></g></svg></g></svg>